<?xml version="1.0" encoding="UTF-8" standalone="no"?>
<!DOCTYPE svg PUBLIC "-//W3C//DTD SVG 1.1//EN"
 "http://www.w3.org/Graphics/SVG/1.1/DTD/svg11.dtd">
<!-- Generated by graphviz version 2.40.1 (20161225.0304)
 -->
<!-- Title: model_graph Pages: 1 -->
<svg width="754pt" height="295pt"
 viewBox="0.00 0.00 754.00 295.00" xmlns="http://www.w3.org/2000/svg" xmlns:xlink="http://www.w3.org/1999/xlink">
<g id="graph0" class="graph" transform="scale(1 1) rotate(0) translate(4 291)">
<title>model_graph</title>
<polygon fill="#ffffff" stroke="transparent" points="-4,4 -4,-291 750,-291 750,4 -4,4"/>
<!-- model_Entity -->
<g id="node1" class="node">
<title>model_Entity</title>
<polygon fill="#ffffff" stroke="transparent" points="252,-106 252,-168 362,-168 362,-106 252,-106"/>
<polygon fill="#1b563f" stroke="transparent" points="253,-146 253,-167 361,-167 361,-146 253,-146"/>
<text text-anchor="start" x="278" y="-155" font-family="Roboto" font-size="8.00" fill="#000000"> &#160;&#160;&#160;</text>
<text text-anchor="start" x="288" y="-155" font-family="Roboto" font-weight="bold" font-size="10.00" fill="#ffffff"> &#160;&#160;&#160;Entity &#160;&#160;&#160;</text>
<text text-anchor="start" x="255" y="-138.6" font-family="Roboto" font-size="8.00" fill="#000000"> &#160;&#160;&#160;</text>
<text text-anchor="start" x="265" y="-138.6" font-family="Roboto" font-weight="bold" font-size="8.00" fill="#000000">id</text>
<text text-anchor="start" x="273" y="-138.6" font-family="Roboto" font-size="8.00" fill="#000000"> &#160;&#160;&#160;</text>
<text text-anchor="start" x="299" y="-138.6" font-family="Roboto" font-size="8.00" fill="#000000"> &#160;&#160;&#160;</text>
<text text-anchor="start" x="309" y="-138.6" font-family="Roboto" font-weight="bold" font-size="8.00" fill="#000000">String</text>
<text text-anchor="start" x="335" y="-138.6" font-family="Roboto" font-size="8.00" fill="#000000"> &#160;&#160;&#160;</text>
<text text-anchor="start" x="255" y="-125.6" font-family="Roboto" font-size="8.00" fill="#000000"> &#160;&#160;&#160;</text>
<text text-anchor="start" x="265" y="-125.6" font-family="Roboto" font-size="8.00" fill="#000000">name</text>
<text text-anchor="start" x="285" y="-125.6" font-family="Roboto" font-size="8.00" fill="#000000"> &#160;&#160;&#160;</text>
<text text-anchor="start" x="299" y="-125.6" font-family="Roboto" font-size="8.00" fill="#000000"> &#160;&#160;&#160;</text>
<text text-anchor="start" x="309" y="-125.6" font-family="Roboto" font-size="8.00" fill="#000000">String</text>
<text text-anchor="start" x="331" y="-125.6" font-family="Roboto" font-size="8.00" fill="#000000"> &#160;&#160;&#160;</text>
<text text-anchor="start" x="255" y="-112.6" font-family="Roboto" font-size="8.00" fill="#000000"> &#160;&#160;&#160;</text>
<text text-anchor="start" x="265" y="-112.6" font-family="Roboto" font-size="8.00" fill="#000000">types</text>
<text text-anchor="start" x="284" y="-112.6" font-family="Roboto" font-size="8.00" fill="#000000"> &#160;&#160;&#160;</text>
<text text-anchor="start" x="299" y="-112.6" font-family="Roboto" font-size="8.00" fill="#000000"> &#160;&#160;&#160;</text>
<text text-anchor="start" x="309" y="-112.6" font-family="Roboto" font-size="8.00" fill="#000000">List&lt;Type&gt;</text>
<text text-anchor="start" x="349" y="-112.6" font-family="Roboto" font-size="8.00" fill="#000000"> &#160;&#160;&#160;</text>
<polygon fill="none" stroke="#000000" points="252,-106 252,-168 362,-168 362,-106 252,-106"/>
</g>
<!-- model_Type -->
<g id="node2" class="node">
<title>model_Type</title>
<polygon fill="#ffffff" stroke="transparent" points="119,-4 119,-53 215,-53 215,-4 119,-4"/>
<polygon fill="#1b563f" stroke="transparent" points="120,-30.5 120,-51.5 214,-51.5 214,-30.5 120,-30.5"/>
<text text-anchor="start" x="141" y="-39.5" font-family="Roboto" font-size="8.00" fill="#000000"> &#160;&#160;&#160;</text>
<text text-anchor="start" x="151" y="-39.5" font-family="Roboto" font-weight="bold" font-size="10.00" fill="#ffffff"> &#160;&#160;&#160;Type &#160;&#160;&#160;</text>
<text text-anchor="start" x="122" y="-23.1" font-family="Roboto" font-size="8.00" fill="#000000"> &#160;&#160;&#160;</text>
<text text-anchor="start" x="132" y="-23.1" font-family="Roboto" font-weight="bold" font-size="8.00" fill="#000000">id</text>
<text text-anchor="start" x="140" y="-23.1" font-family="Roboto" font-size="8.00" fill="#000000"> &#160;&#160;&#160;</text>
<text text-anchor="start" x="166" y="-23.1" font-family="Roboto" font-size="8.00" fill="#000000"> &#160;&#160;&#160;</text>
<text text-anchor="start" x="176" y="-23.1" font-family="Roboto" font-weight="bold" font-size="8.00" fill="#000000">String</text>
<text text-anchor="start" x="202" y="-23.1" font-family="Roboto" font-size="8.00" fill="#000000"> &#160;&#160;&#160;</text>
<text text-anchor="start" x="122" y="-10.1" font-family="Roboto" font-size="8.00" fill="#000000"> &#160;&#160;&#160;</text>
<text text-anchor="start" x="132" y="-10.1" font-family="Roboto" font-size="8.00" fill="#000000">name</text>
<text text-anchor="start" x="152" y="-10.1" font-family="Roboto" font-size="8.00" fill="#000000"> &#160;&#160;&#160;</text>
<text text-anchor="start" x="166" y="-10.1" font-family="Roboto" font-size="8.00" fill="#000000"> &#160;&#160;&#160;</text>
<text text-anchor="start" x="176" y="-10.1" font-family="Roboto" font-size="8.00" fill="#000000">String</text>
<text text-anchor="start" x="198" y="-10.1" font-family="Roboto" font-size="8.00" fill="#000000"> &#160;&#160;&#160;</text>
<polygon fill="none" stroke="#000000" points="119,-4 119,-53 215,-53 215,-4 119,-4"/>
</g>
<!-- model_Entity&#45;&gt;model_Type -->
<g id="edge10" class="edge">
<title>model_Entity&#45;&gt;model_Type</title>
<path fill="none" stroke="#000000" d="M254.8779,-96.6054C240.1623,-85.2008 224.3169,-72.9206 210.1882,-61.9709"/>
<ellipse fill="#000000" stroke="#000000" cx="258.3843" cy="-99.3229" rx="4" ry="4"/>
<ellipse fill="#000000" stroke="#000000" cx="206.9894" cy="-59.4918" rx="4" ry="4"/>
<text text-anchor="middle" x="247.5" y="-77.6" font-family="Roboto" font-size="8.00" fill="#000000"> types</text>
</g>
<!-- model_PropertyValue -->
<g id="node4" class="node">
<title>model_PropertyValue</title>
<polygon fill="#ffffff" stroke="transparent" points="411,-17 411,-40 521,-40 521,-17 411,-17"/>
<polygon fill="#1b563f" stroke="transparent" points="412,-17.5 412,-38.5 520,-38.5 520,-17.5 412,-17.5"/>
<text text-anchor="start" x="417" y="-26.5" font-family="Roboto" font-size="8.00" fill="#000000"> &#160;&#160;&#160;</text>
<text text-anchor="start" x="427" y="-26.5" font-family="Roboto" font-weight="bold" font-size="10.00" fill="#ffffff"> &#160;&#160;&#160;PropertyValue &#160;&#160;&#160;</text>
<polygon fill="none" stroke="#000000" points="411,-17 411,-40 521,-40 521,-17 411,-17"/>
</g>
<!-- model_Entity&#45;&gt;model_PropertyValue -->
<g id="edge8" class="edge">
<title>model_Entity&#45;&gt;model_PropertyValue</title>
<path fill="none" stroke="#000000" d="M358.6227,-101.7732C382.3725,-85.5666 409.9228,-66.7665 431.1703,-52.2674"/>
<polygon fill="none" stroke="#000000" points="433.28,-55.0651 439.5673,-46.5374 429.3344,-49.283 433.28,-55.0651"/>
</g>
<!-- model_Property -->
<g id="node3" class="node">
<title>model_Property</title>
<polygon fill="#ffffff" stroke="transparent" points="8,-106 8,-168 104,-168 104,-106 8,-106"/>
<polygon fill="#1b563f" stroke="transparent" points="9,-146 9,-167 103,-167 103,-146 9,-146"/>
<text text-anchor="start" x="20.5" y="-155" font-family="Roboto" font-size="8.00" fill="#000000"> &#160;&#160;&#160;</text>
<text text-anchor="start" x="30.5" y="-155" font-family="Roboto" font-weight="bold" font-size="10.00" fill="#ffffff"> &#160;&#160;&#160;Property &#160;&#160;&#160;</text>
<text text-anchor="start" x="11" y="-138.6" font-family="Roboto" font-size="8.00" fill="#000000"> &#160;&#160;&#160;</text>
<text text-anchor="start" x="21" y="-138.6" font-family="Roboto" font-weight="bold" font-size="8.00" fill="#000000">id</text>
<text text-anchor="start" x="29" y="-138.6" font-family="Roboto" font-size="8.00" fill="#000000"> &#160;&#160;&#160;</text>
<text text-anchor="start" x="55" y="-138.6" font-family="Roboto" font-size="8.00" fill="#000000"> &#160;&#160;&#160;</text>
<text text-anchor="start" x="65" y="-138.6" font-family="Roboto" font-weight="bold" font-size="8.00" fill="#000000">String</text>
<text text-anchor="start" x="91" y="-138.6" font-family="Roboto" font-size="8.00" fill="#000000"> &#160;&#160;&#160;</text>
<text text-anchor="start" x="11" y="-125.6" font-family="Roboto" font-size="8.00" fill="#000000"> &#160;&#160;&#160;</text>
<text text-anchor="start" x="21" y="-125.6" font-family="Roboto" font-size="8.00" fill="#000000">name</text>
<text text-anchor="start" x="41" y="-125.6" font-family="Roboto" font-size="8.00" fill="#000000"> &#160;&#160;&#160;</text>
<text text-anchor="start" x="55" y="-125.6" font-family="Roboto" font-size="8.00" fill="#000000"> &#160;&#160;&#160;</text>
<text text-anchor="start" x="65" y="-125.6" font-family="Roboto" font-size="8.00" fill="#000000">String</text>
<text text-anchor="start" x="87" y="-125.6" font-family="Roboto" font-size="8.00" fill="#000000"> &#160;&#160;&#160;</text>
<text text-anchor="start" x="11" y="-112.6" font-family="Roboto" font-size="8.00" fill="#000000"> &#160;&#160;&#160;</text>
<text text-anchor="start" x="21" y="-112.6" font-family="Roboto" font-size="8.00" fill="#000000">type</text>
<text text-anchor="start" x="36" y="-112.6" font-family="Roboto" font-size="8.00" fill="#000000"> &#160;&#160;&#160;</text>
<text text-anchor="start" x="55" y="-112.6" font-family="Roboto" font-size="8.00" fill="#000000"> &#160;&#160;&#160;</text>
<text text-anchor="start" x="65" y="-112.6" font-family="Roboto" font-size="8.00" fill="#000000">Type</text>
<text text-anchor="start" x="83" y="-112.6" font-family="Roboto" font-size="8.00" fill="#000000"> &#160;&#160;&#160;</text>
<polygon fill="none" stroke="#000000" points="8,-106 8,-168 104,-168 104,-106 8,-106"/>
</g>
<!-- model_Property&#45;&gt;model_Type -->
<g id="edge1" class="edge">
<title>model_Property&#45;&gt;model_Type</title>
<path fill="none" stroke="#000000" d="M98.0408,-95.906C111.2974,-82.9481 125.6441,-68.9245 137.8009,-57.0415"/>
<ellipse fill="#000000" stroke="#000000" cx="94.899" cy="-98.9771" rx="4" ry="4"/>
<text text-anchor="middle" x="127.5" y="-77.6" font-family="Roboto" font-size="8.00" fill="#000000"> type</text>
</g>
<!-- model_Statement -->
<g id="node5" class="node">
<title>model_Statement</title>
<polygon fill="#ffffff" stroke="transparent" points="243,-221 243,-283 371,-283 371,-221 243,-221"/>
<polygon fill="#1b563f" stroke="transparent" points="244,-261 244,-282 370,-282 370,-261 244,-261"/>
<text text-anchor="start" x="267" y="-270" font-family="Roboto" font-size="8.00" fill="#000000"> &#160;&#160;&#160;</text>
<text text-anchor="start" x="277" y="-270" font-family="Roboto" font-weight="bold" font-size="10.00" fill="#ffffff"> &#160;&#160;&#160;Statement &#160;&#160;&#160;</text>
<text text-anchor="start" x="246" y="-253.6" font-family="Roboto" font-size="8.00" fill="#000000"> &#160;&#160;&#160;</text>
<text text-anchor="start" x="256" y="-253.6" font-family="Roboto" font-size="8.00" fill="#000000">entity</text>
<text text-anchor="start" x="275" y="-253.6" font-family="Roboto" font-size="8.00" fill="#000000"> &#160;&#160;&#160;</text>
<text text-anchor="start" x="299" y="-253.6" font-family="Roboto" font-size="8.00" fill="#000000"> &#160;&#160;&#160;</text>
<text text-anchor="start" x="309" y="-253.6" font-family="Roboto" font-size="8.00" fill="#000000">Entity</text>
<text text-anchor="start" x="329" y="-253.6" font-family="Roboto" font-size="8.00" fill="#000000"> &#160;&#160;&#160;</text>
<text text-anchor="start" x="246" y="-240.6" font-family="Roboto" font-size="8.00" fill="#000000"> &#160;&#160;&#160;</text>
<text text-anchor="start" x="256" y="-240.6" font-family="Roboto" font-size="8.00" fill="#000000">property</text>
<text text-anchor="start" x="285" y="-240.6" font-family="Roboto" font-size="8.00" fill="#000000"> &#160;&#160;&#160;</text>
<text text-anchor="start" x="299" y="-240.6" font-family="Roboto" font-size="8.00" fill="#000000"> &#160;&#160;&#160;</text>
<text text-anchor="start" x="309" y="-240.6" font-family="Roboto" font-size="8.00" fill="#000000">Property</text>
<text text-anchor="start" x="338" y="-240.6" font-family="Roboto" font-size="8.00" fill="#000000"> &#160;&#160;&#160;</text>
<text text-anchor="start" x="246" y="-227.6" font-family="Roboto" font-size="8.00" fill="#000000"> &#160;&#160;&#160;</text>
<text text-anchor="start" x="256" y="-227.6" font-family="Roboto" font-size="8.00" fill="#000000">value</text>
<text text-anchor="start" x="275" y="-227.6" font-family="Roboto" font-size="8.00" fill="#000000"> &#160;&#160;&#160;</text>
<text text-anchor="start" x="299" y="-227.6" font-family="Roboto" font-size="8.00" fill="#000000"> &#160;&#160;&#160;</text>
<text text-anchor="start" x="309" y="-227.6" font-family="Roboto" font-size="8.00" fill="#000000">PropertyValue</text>
<text text-anchor="start" x="358" y="-227.6" font-family="Roboto" font-size="8.00" fill="#000000"> &#160;&#160;&#160;</text>
<polygon fill="none" stroke="#000000" points="243,-221 243,-283 371,-283 371,-221 243,-221"/>
</g>
<!-- model_Statement&#45;&gt;model_Entity -->
<g id="edge2" class="edge">
<title>model_Statement&#45;&gt;model_Entity</title>
<path fill="none" stroke="#000000" d="M307,-208.7228C307,-196.7082 307,-183.8096 307,-172.3098"/>
<ellipse fill="#000000" stroke="#000000" cx="307" cy="-212.8713" rx="4" ry="4"/>
<text text-anchor="middle" x="318" y="-192.6" font-family="Roboto" font-size="8.00" fill="#000000"> entity</text>
</g>
<!-- model_Statement&#45;&gt;model_Property -->
<g id="edge3" class="edge">
<title>model_Statement&#45;&gt;model_Property</title>
<path fill="none" stroke="#000000" d="M227.3645,-219.5597C194.1795,-205.575 155.4283,-188.6335 121,-172 118.1149,-170.6061 115.1734,-169.1507 112.2141,-167.659"/>
<ellipse fill="#000000" stroke="#000000" cx="231.1063" cy="-221.1314" rx="4" ry="4"/>
<text text-anchor="middle" x="192.5" y="-192.6" font-family="Roboto" font-size="8.00" fill="#000000"> property</text>
</g>
<!-- model_Statement&#45;&gt;model_PropertyValue -->
<g id="edge4" class="edge">
<title>model_Statement&#45;&gt;model_PropertyValue</title>
<path fill="none" stroke="#000000" d="M386.7753,-234.6951C420.6698,-222.9707 456.9328,-203.6215 477,-172 501.6341,-133.182 485.1741,-76.0325 473.9667,-46.9565"/>
<ellipse fill="#000000" stroke="#000000" cx="382.9307" cy="-235.9686" rx="4" ry="4"/>
<text text-anchor="middle" x="500" y="-135.1" font-family="Roboto" font-size="8.00" fill="#000000"> value</text>
</g>
<!-- model_String -->
<g id="node6" class="node">
<title>model_String</title>
<polygon fill="#ffffff" stroke="transparent" points="552,-125.5 552,-148.5 624,-148.5 624,-125.5 552,-125.5"/>
<polygon fill="#1b563f" stroke="transparent" points="553,-126 553,-147 623,-147 623,-126 553,-126"/>
<text text-anchor="start" x="558.5" y="-135" font-family="Roboto" font-size="8.00" fill="#000000"> &#160;&#160;&#160;</text>
<text text-anchor="start" x="568.5" y="-135" font-family="Roboto" font-weight="bold" font-size="10.00" fill="#ffffff"> &#160;&#160;&#160;String &#160;&#160;&#160;</text>
<polygon fill="none" stroke="#000000" points="552,-125.5 552,-148.5 624,-148.5 624,-125.5 552,-125.5"/>
</g>
<!-- model_String&#45;&gt;model_PropertyValue -->
<g id="edge6" class="edge">
<title>model_String&#45;&gt;model_PropertyValue</title>
<path fill="none" stroke="#000000" d="M567.5799,-118.8395C547.4346,-100.9234 516.4827,-73.3965 494.0389,-53.4362"/>
<polygon fill="none" stroke="#000000" points="496.2851,-50.7499 486.4867,-46.7197 491.6332,-55.9806 496.2851,-50.7499"/>
</g>
<!-- model_Number -->
<g id="node7" class="node">
<title>model_Number</title>
<polygon fill="#ffffff" stroke="transparent" points="658,-125.5 658,-148.5 738,-148.5 738,-125.5 658,-125.5"/>
<polygon fill="#1b563f" stroke="transparent" points="659,-126 659,-147 737,-147 737,-126 659,-126"/>
<text text-anchor="start" x="664.5" y="-135" font-family="Roboto" font-size="8.00" fill="#000000"> &#160;&#160;&#160;</text>
<text text-anchor="start" x="674.5" y="-135" font-family="Roboto" font-weight="bold" font-size="10.00" fill="#ffffff"> &#160;&#160;&#160;Number &#160;&#160;&#160;</text>
<polygon fill="none" stroke="#000000" points="658,-125.5 658,-148.5 738,-148.5 738,-125.5 658,-125.5"/>
</g>
<!-- model_Number&#45;&gt;model_PropertyValue -->
<g id="edge5" class="edge">
<title>model_Number&#45;&gt;model_PropertyValue</title>
<path fill="none" stroke="#000000" d="M670.3687,-118.8591C661.1947,-113.1554 650.8148,-107.037 641,-102 602.9468,-82.4711 558.494,-63.8507 523.9134,-50.2379"/>
<polygon fill="none" stroke="#000000" points="525.0232,-46.9139 514.4352,-46.5345 522.4757,-53.4339 525.0232,-46.9139"/>
</g>
<!-- model_Boolean -->
<g id="node8" class="node">
<title>model_Boolean</title>
<polygon fill="#ffffff" stroke="transparent" points="138,-125.5 138,-148.5 218,-148.5 218,-125.5 138,-125.5"/>
<polygon fill="#1b563f" stroke="transparent" points="139,-126 139,-147 217,-147 217,-126 139,-126"/>
<text text-anchor="start" x="144.5" y="-135" font-family="Roboto" font-size="8.00" fill="#000000"> &#160;&#160;&#160;</text>
<text text-anchor="start" x="154.5" y="-135" font-family="Roboto" font-weight="bold" font-size="10.00" fill="#ffffff"> &#160;&#160;&#160;Boolean &#160;&#160;&#160;</text>
<polygon fill="none" stroke="#000000" points="138,-125.5 138,-148.5 218,-148.5 218,-125.5 138,-125.5"/>
</g>
<!-- model_Boolean&#45;&gt;model_PropertyValue -->
<g id="edge7" class="edge">
<title>model_Boolean&#45;&gt;model_PropertyValue</title>
<path fill="none" stroke="#000000" d="M186.9732,-118.8434C194.9682,-104.6299 208.0246,-85.5573 225,-75 252.4931,-57.9016 332.2631,-44.7178 392.5606,-36.8259"/>
<polygon fill="none" stroke="#000000" points="393.3431,-40.2543 402.8161,-35.5097 392.4519,-33.3113 393.3431,-40.2543"/>
</g>
<!-- model_Date -->
<g id="node9" class="node">
<title>model_Date</title>
<polygon fill="#ffffff" stroke="transparent" points="396,-125.5 396,-148.5 460,-148.5 460,-125.5 396,-125.5"/>
<polygon fill="#1b563f" stroke="transparent" points="397,-126 397,-147 459,-147 459,-126 397,-126"/>
<text text-anchor="start" x="402.5" y="-135" font-family="Roboto" font-size="8.00" fill="#000000"> &#160;&#160;&#160;</text>
<text text-anchor="start" x="412.5" y="-135" font-family="Roboto" font-weight="bold" font-size="10.00" fill="#ffffff"> &#160;&#160;&#160;Date &#160;&#160;&#160;</text>
<polygon fill="none" stroke="#000000" points="396,-125.5 396,-148.5 460,-148.5 460,-125.5 396,-125.5"/>
</g>
<!-- model_Date&#45;&gt;model_PropertyValue -->
<g id="edge9" class="edge">
<title>model_Date&#45;&gt;model_PropertyValue</title>
<path fill="none" stroke="#000000" d="M434.4462,-118.5945C440.4327,-101.5013 449.4289,-75.8147 456.2857,-56.2369"/>
<polygon fill="none" stroke="#000000" points="459.6468,-57.2286 459.649,-46.6337 453.0402,-54.9147 459.6468,-57.2286"/>
</g>
</g>
</svg>
